<svg viewBox="0 0 54 10" fill="none" xmlns="http://www.w3.org/2000/svg">
<path d="M4.8 9.192C3.944 9.192 3.188 9.036 2.532 8.724C1.884 8.404 1.38 7.96 1.02 7.392C0.668004 6.824 0.492004 6.172 0.492004 5.436C0.492004 4.46 0.716004 3.592 1.164 2.832C1.62 2.072 2.248 1.48 3.048 1.056C3.856 0.624 4.772 0.408 5.796 0.408C6.604 0.408 7.32 0.556 7.94401 0.852C8.568 1.14 9.032 1.552 9.33601 2.088L7.296 3.684C6.92 3.028 6.36 2.7 5.616 2.7C5.176 2.7 4.784 2.808 4.44 3.024C4.096 3.24 3.828 3.544 3.636 3.936C3.444 4.32 3.348 4.76 3.348 5.256C3.348 5.752 3.504 6.152 3.816 6.456C4.136 6.752 4.556 6.9 5.076 6.9C5.788 6.9 6.412 6.576 6.94801 5.928L8.61601 7.524C8.12801 8.124 7.572 8.552 6.94801 8.808C6.33201 9.064 5.616 9.192 4.8 9.192Z" fill="#E18F5D"/>
<path d="M13.5059 9.192C12.6499 9.192 11.8979 9.036 11.2499 8.724C10.6099 8.404 10.1139 7.96 9.76191 7.392C9.41791 6.824 9.24591 6.172 9.24591 5.436C9.24591 4.46 9.46991 3.592 9.91791 2.832C10.3739 2.064 11.0019 1.468 11.8019 1.044C12.6099 0.62 13.5219 0.408 14.5379 0.408C15.3939 0.408 16.1419 0.568 16.7819 0.887999C17.4299 1.2 17.9259 1.64 18.2699 2.208C18.6219 2.776 18.7979 3.428 18.7979 4.164C18.7979 5.14 18.5699 6.012 18.1139 6.78C17.6659 7.54 17.0379 8.132 16.2299 8.556C15.4299 8.98 14.5219 9.192 13.5059 9.192ZM13.7459 6.9C14.1939 6.9 14.5819 6.784 14.9099 6.552C15.2459 6.32 15.5019 6.008 15.6779 5.616C15.8539 5.224 15.9419 4.796 15.9419 4.332C15.9419 3.836 15.7939 3.44 15.4979 3.144C15.2099 2.848 14.8099 2.7 14.2979 2.7C13.8499 2.7 13.4579 2.816 13.1219 3.048C12.7939 3.28 12.5419 3.592 12.3659 3.984C12.1899 4.376 12.1019 4.804 12.1019 5.268C12.1019 5.764 12.2459 6.16 12.5339 6.456C12.8299 6.752 13.2339 6.9 13.7459 6.9Z" fill="#E18F5D"/>
<path d="M24.3498 0.599999C25.4378 0.599999 26.2778 0.835999 26.8698 1.308C27.4618 1.78 27.7578 2.444 27.7578 3.3C27.7578 4.004 27.5858 4.62 27.2418 5.148C26.9058 5.676 26.4218 6.084 25.7898 6.372C25.1658 6.66 24.4378 6.804 23.6058 6.804H21.9258L21.4938 9H19.1178L20.7978 0.599999H24.3498ZM23.7138 4.932C24.2418 4.932 24.6458 4.808 24.9258 4.56C25.2138 4.312 25.3578 3.96 25.3578 3.504C25.3578 3.16 25.2418 2.904 25.0098 2.736C24.7858 2.56 24.4618 2.472 24.0378 2.472H22.7898L22.2978 4.932H23.7138Z" fill="#E18F5D"/>
<path d="M33.0803 0.599999C34.1683 0.599999 35.0083 0.835999 35.6003 1.308C36.1923 1.78 36.4883 2.444 36.4883 3.3C36.4883 4.004 36.3163 4.62 35.9723 5.148C35.6363 5.676 35.1523 6.084 34.5203 6.372C33.8963 6.66 33.1683 6.804 32.3363 6.804H30.6563L30.2243 9H27.8483L29.5283 0.599999H33.0803ZM32.4443 4.932C32.9723 4.932 33.3763 4.808 33.6563 4.56C33.9443 4.312 34.0883 3.96 34.0883 3.504C34.0883 3.16 33.9723 2.904 33.7403 2.736C33.5163 2.56 33.1923 2.472 32.7683 2.472H31.5203L31.0283 4.932H32.4443Z" fill="#E18F5D"/>
<path d="M40.5599 2.736L40.3679 3.72H43.9199L43.5119 5.76H39.9479L39.7319 6.864H43.9439L43.5119 9H36.5279L38.2079 0.599999H45.0359L44.6039 2.736H40.5599Z" fill="#E18F5D"/>
<path d="M53.5421 3.36C53.5421 4.104 53.3421 4.756 52.9421 5.316C52.5501 5.868 51.9941 6.28 51.2741 6.552L52.6781 9H49.7381L48.5501 6.888H47.8541L47.4341 9H44.6021L46.2821 0.599999H50.0501C51.1541 0.599999 52.0101 0.843999 52.6181 1.332C53.2341 1.812 53.5421 2.488 53.5421 3.36ZM50.6741 3.636C50.6741 3.068 50.3221 2.784 49.6181 2.784H48.6701L48.2741 4.752H49.4381C49.8301 4.752 50.1341 4.656 50.3501 4.464C50.5661 4.264 50.6741 3.988 50.6741 3.636Z" fill="#E18F5D"/>
</svg>
